<svg width="1048" height="306" viewBox="0 0 1048 306" fill="none" xmlns="http://www.w3.org/2000/svg">
<path d="M2.56026 0H14.5306C15.9904 0 17.1358 1.24252 17.0909 2.71096C17.0909 3.20797 17.0909 3.72757 17.0909 4.29236V33.9096C17.0909 41.2518 23.0199 47.2159 30.3189 47.2159H40.1333C41.5481 47.2159 42.6935 48.3681 42.6935 49.7913V120.615C42.6935 122.038 41.5481 123.191 40.1333 123.191H30.3189C23.0199 123.191 17.0909 129.155 17.0909 136.497V163.539C17.0909 170.881 23.0199 176.845 30.3189 176.845H40.1333C41.5481 176.845 42.6935 177.997 42.6935 179.421V297.867C42.6935 299.29 41.5481 300.442 40.1333 300.442H2.56026C1.14538 300.442 0 299.29 0 297.867V2.57541C0 1.15216 1.14538 0 2.56026 0ZM38.404 13.3063C38.404 5.96412 44.3105 0 51.632 0H183.036C184.451 0 185.597 1.15216 185.597 2.57541V38.202C185.597 39.6252 184.451 40.7774 183.036 40.7774H51.632C44.333 40.7774 38.404 34.8133 38.404 27.4711V13.3063ZM38.404 142.913C38.404 135.571 44.333 129.607 51.632 129.607H161.297C162.711 129.607 163.857 130.759 163.857 132.182V167.809C163.857 169.232 162.711 170.384 161.297 170.384H51.632C44.333 170.384 38.404 164.42 38.404 157.078V142.913Z" fill="#134E4A"/>
<path d="M309.908 80.2671C376.475 80.2671 420.83 125.337 420.83 193.133C420.83 260.93 376.452 306 309.908 306C243.363 306 198.985 260.93 198.985 193.133C198.985 125.337 243.363 80.2671 309.908 80.2671ZM397.361 204.723V179.827C397.361 172.485 391.432 166.521 384.133 166.521H379.596C378.496 166.521 377.508 165.798 377.171 164.736C367.783 136.181 343.753 118.898 310.334 118.898C276.916 118.898 251.628 136.61 242.195 165.188C241.836 166.25 240.87 166.973 239.77 166.973H235.66C228.361 166.973 222.432 172.937 222.432 180.279V205.175C222.432 212.517 228.361 218.481 235.66 218.481H239.77C240.893 218.481 241.859 219.204 242.195 220.288C251.605 249.296 276.467 267.414 310.334 267.414C344.202 267.414 368.636 249.296 377.642 219.904C377.979 218.82 378.945 218.074 380.09 218.074H384.155C391.454 218.074 397.383 212.11 397.383 204.768L397.361 204.723Z" fill="#134E4A"/>
<path d="M458.807 0H494.224C495.639 0 496.784 1.15216 496.784 2.57541V90.0491C496.784 90.6591 496.559 91.2465 496.178 91.6983L473.742 118.446C470.328 122.739 470.328 127.031 474.595 130.465L480.142 135.187C481.849 136.904 483.983 137.333 485.69 137.333C487.823 137.333 490.383 136.474 492.09 133.899L522.566 97.2784C522.724 97.075 522.903 96.9169 523.128 96.7814C538.826 86.186 556.636 80.2445 575.299 80.2445C622.237 80.2445 654.645 118.876 654.645 175.512V297.822C654.645 299.245 653.499 300.397 652.084 300.397H616.667C615.252 300.397 614.107 299.245 614.107 297.822V175.512C614.107 142.461 592.772 118.853 562.902 118.853C527.058 118.853 496.762 152.763 496.762 193.111V297.822C496.762 299.245 495.616 300.397 494.201 300.397H458.784C457.37 300.397 456.224 299.245 456.224 297.822V2.57541C456.247 1.15216 457.392 0 458.807 0Z" fill="#134E4A"/>
<path d="M856.857 191.846V171.243C856.857 163.9 850.928 157.936 843.629 157.936H835.858C834.51 157.936 833.365 156.874 833.298 155.519C832.085 129.787 817.869 118.876 785.169 118.876C756.332 118.876 742.229 127.664 739.736 147.974C739.579 149.261 738.478 150.21 737.198 150.21H701.714C700.231 150.21 699.041 148.945 699.153 147.454C702.836 104.53 734.188 80.2446 786 80.2446C841.899 80.2446 873.88 109.003 873.88 158.772V297.822C873.88 299.245 872.735 300.397 871.32 300.397H835.903C834.488 300.397 833.343 299.245 833.343 297.822V273.672C833.343 271.119 830.086 270.148 828.649 272.249C814.388 293.304 790.155 305.977 760.802 305.977C718.557 305.977 689.968 279.794 689.968 241.163C689.968 193.088 733.492 164.33 805.157 164.33H826.493C832.624 164.33 837.587 169.322 837.587 175.49V187.508C837.587 193.676 832.624 198.669 826.493 198.669H804.73C756.512 198.669 730.483 214.121 730.483 239.875C730.483 257.474 742.431 267.346 762.913 267.346C798.757 267.346 833.32 238.158 833.32 207.682C833.32 206.259 834.465 205.107 835.88 205.107H843.561C850.86 205.107 856.789 199.143 856.789 191.801L856.857 191.846Z" fill="#134E4A"/>
<path d="M1048 264.364V297.844C1048 299.267 1046.85 300.419 1045.44 300.419H984.42C961.804 300.419 943.456 281.985 943.456 259.213V127.031C943.456 125.608 942.311 124.455 940.896 124.455H904.625C903.21 124.455 902.065 123.303 902.065 121.88V88.3996C902.065 86.9764 903.21 85.8242 904.625 85.8242H940.896C942.311 85.8242 943.456 84.672 943.456 83.2488V24.0368C943.456 22.6136 944.601 21.4614 946.016 21.4614H981.433C982.848 21.4614 983.993 22.6136 983.993 24.0368V76.8328C983.993 78.2561 982.848 79.4082 981.433 79.4082H973.752C966.453 79.4082 960.524 85.3724 960.524 92.7146V117.61C960.524 124.952 966.453 130.917 973.752 130.917H981.433C982.848 130.917 983.993 132.069 983.993 133.492V250.651C983.993 256.818 988.957 261.811 995.088 261.811H1045.44C1046.85 261.811 1048 262.963 1048 264.386V264.364ZM990.394 124.455C984.263 124.455 979.3 119.463 979.3 113.295V96.9843C979.3 90.8169 984.263 85.8242 990.394 85.8242H1034.35C1035.76 85.8242 1036.91 86.9764 1036.91 88.3996V121.88C1036.91 123.303 1035.76 124.455 1034.35 124.455H990.394Z" fill="#134E4A"/>
</svg>
