<svg width="1048" height="306" viewBox="0 0 1048 306" fill="none" xmlns="http://www.w3.org/2000/svg">
<path d="M2.56026 0H14.5306C15.9904 0 17.1358 1.24045 17.0909 2.70643C17.0909 3.20261 17.0909 3.72134 17.0909 4.28518V33.8529C17.0909 41.1828 23.0199 47.137 30.3189 47.137H40.1333C41.5481 47.137 42.6935 48.2872 42.6935 49.7081V120.414C42.6935 121.834 41.5481 122.985 40.1333 122.985H30.3189C23.0199 122.985 17.0909 128.939 17.0909 136.269V163.265C17.0909 170.595 23.0199 176.549 30.3189 176.549H40.1333C41.5481 176.549 42.6935 177.7 42.6935 179.121V297.369C42.6935 298.79 41.5481 299.94 40.1333 299.94H2.56026C1.14538 299.94 0 298.79 0 297.369V2.57111C0 1.15023 1.14538 0 2.56026 0ZM38.404 13.2841C38.404 5.95415 44.3105 0 51.632 0H183.036C184.451 0 185.597 1.15023 185.597 2.57111V38.1381C185.597 39.559 184.451 40.7092 183.036 40.7092H51.632C44.333 40.7092 38.404 34.7551 38.404 27.4252V13.2841ZM38.404 142.674C38.404 135.344 44.333 129.39 51.632 129.39H161.297C162.711 129.39 163.857 130.54 163.857 131.961V167.528C163.857 168.949 162.711 170.099 161.297 170.099H51.632C44.333 170.099 38.404 164.145 38.404 156.815V142.674Z" fill="#FFBC00"/>
<path d="M309.907 80.1328C376.474 80.1328 420.829 125.127 420.829 192.81C420.829 260.494 376.452 305.488 309.907 305.488C243.363 305.488 198.985 260.494 198.985 192.81C198.985 125.127 243.363 80.1328 309.907 80.1328ZM397.36 204.38V179.526C397.36 172.197 391.431 166.242 384.132 166.242H379.596C378.495 166.242 377.507 165.521 377.17 164.461C367.783 135.953 343.752 118.699 310.334 118.699C276.916 118.699 251.627 136.381 242.195 164.912C241.836 165.972 240.87 166.693 239.769 166.693H235.66C228.361 166.693 222.431 172.648 222.431 179.978V204.832C222.431 212.161 228.361 218.116 235.66 218.116H239.769C240.892 218.116 241.858 218.837 242.195 219.92C251.605 248.879 276.467 266.967 310.334 266.967C344.201 266.967 368.636 248.879 377.642 219.536C377.979 218.454 378.944 217.71 380.09 217.71H384.155C391.454 217.71 397.383 211.756 397.383 204.426L397.36 204.38Z" fill="#FFBC00"/>
<path d="M458.807 0H494.224C495.639 0 496.784 1.15023 496.784 2.57111V89.8986C496.784 90.5075 496.559 91.0939 496.178 91.545L473.742 118.248C470.328 122.534 470.328 126.819 474.595 130.247L480.142 134.961C481.849 136.675 483.983 137.103 485.69 137.103C487.823 137.103 490.383 136.246 492.09 133.675L522.566 97.1157C522.724 96.9127 522.903 96.7549 523.128 96.6195C538.826 86.0419 556.636 80.1103 575.299 80.1103C622.237 80.1103 654.645 118.677 654.645 175.219V297.324C654.645 298.745 653.499 299.895 652.084 299.895H616.667C615.252 299.895 614.107 298.745 614.107 297.324V175.219C614.107 142.223 592.771 118.654 562.902 118.654C527.058 118.654 496.762 152.507 496.762 192.788V297.324C496.762 298.745 495.616 299.895 494.201 299.895H458.784C457.37 299.895 456.224 298.745 456.224 297.324V2.57111C456.247 1.15023 457.392 0 458.807 0Z" fill="#FFBC00"/>
<path d="M856.857 191.525V170.956C856.857 163.627 850.928 157.672 843.629 157.672H835.858C834.511 157.672 833.365 156.612 833.298 155.259C832.085 129.571 817.869 118.677 785.169 118.677C756.333 118.677 742.229 127.451 739.736 147.726C739.579 149.012 738.478 149.959 737.198 149.959H701.714C700.232 149.959 699.041 148.696 699.154 147.207C702.837 104.356 734.189 80.1106 786 80.1106C841.899 80.1106 873.88 108.821 873.88 158.507V297.324C873.88 298.745 872.735 299.895 871.32 299.895H835.903C834.488 299.895 833.343 298.745 833.343 297.324V273.214C833.343 270.666 830.086 269.696 828.649 271.793C814.388 292.813 790.155 305.466 760.802 305.466C718.558 305.466 689.968 279.326 689.968 240.76C689.968 192.766 733.493 164.055 805.157 164.055H826.493C832.624 164.055 837.587 169.039 837.587 175.196V187.195C837.587 193.352 832.624 198.336 826.493 198.336H804.731C756.512 198.336 730.483 213.763 730.483 239.474C730.483 257.043 742.431 266.899 762.913 266.899C798.757 266.899 833.32 237.76 833.32 207.335C833.32 205.914 834.466 204.764 835.881 204.764H843.561C850.86 204.764 856.789 198.81 856.789 191.48L856.857 191.525Z" fill="#FFBC00"/>
<path d="M1048 263.922V297.346C1048 298.767 1046.85 299.917 1045.44 299.917H984.42C961.804 299.917 943.456 281.514 943.456 258.78V126.819C943.456 125.398 942.311 124.248 940.896 124.248H904.625C903.21 124.248 902.065 123.097 902.065 121.676V88.252C902.065 86.8312 903.21 85.6809 904.625 85.6809H940.896C942.311 85.6809 943.456 84.5307 943.456 83.1098V23.9969C943.456 22.576 944.601 21.4258 946.016 21.4258H981.433C982.848 21.4258 983.993 22.576 983.993 23.9969V76.7046C983.993 78.1255 982.848 79.2757 981.433 79.2757H973.752C966.453 79.2757 960.524 85.2299 960.524 92.5598V117.414C960.524 124.744 966.453 130.698 973.752 130.698H981.433C982.848 130.698 983.993 131.848 983.993 133.269V250.232C983.993 256.389 988.957 261.373 995.088 261.373H1045.44C1046.85 261.373 1048 262.524 1048 263.944V263.922ZM990.394 124.248C984.263 124.248 979.3 119.263 979.3 113.106V96.8224C979.3 90.6653 984.263 85.6809 990.394 85.6809H1034.35C1035.76 85.6809 1036.91 86.8312 1036.91 88.252V121.676C1036.91 123.097 1035.76 124.248 1034.35 124.248H990.394Z" fill="#FFBC00"/>
</svg>
